<mxfile host="app.diagrams.net" agent="Mozilla/5.0 (Windows NT 10.0; Win64; x64) AppleWebKit/537.36 (KHTML, like Gecko) Chrome/131.0.0.0 Safari/537.36" version="25.0.1">
  <diagram id="C5RBs43oDa-KdzZeNtuy" name="Page-1">
    <mxGraphModel dx="989" dy="537" grid="1" gridSize="10" guides="1" tooltips="1" connect="1" arrows="1" fold="1" page="1" pageScale="1" pageWidth="827" pageHeight="1169" math="0" shadow="0">
      <root>
        <mxCell id="WIyWlLk6GJQsqaUBKTNV-0" />
        <mxCell id="WIyWlLk6GJQsqaUBKTNV-1" parent="WIyWlLk6GJQsqaUBKTNV-0" />
        <mxCell id="8zD1isjqCTYLz-I86Rim-5" value="Users" style="swimlane;childLayout=stackLayout;resizeParent=1;resizeParentMax=0;startSize=20;html=1;" vertex="1" parent="WIyWlLk6GJQsqaUBKTNV-1">
          <mxGeometry x="140" y="80" width="240" height="200" as="geometry" />
        </mxCell>
        <mxCell id="8zD1isjqCTYLz-I86Rim-6" value="&lt;div&gt;id(pk)&lt;/div&gt;" style="swimlane;startSize=20;html=1;" vertex="1" parent="8zD1isjqCTYLz-I86Rim-5">
          <mxGeometry y="20" width="120" height="180" as="geometry">
            <mxRectangle y="20" width="40" height="190" as="alternateBounds" />
          </mxGeometry>
        </mxCell>
        <mxCell id="8zD1isjqCTYLz-I86Rim-18" value="&lt;div&gt;Username&lt;/div&gt;" style="swimlane;startSize=20;html=1;" vertex="1" parent="8zD1isjqCTYLz-I86Rim-6">
          <mxGeometry y="20" width="120" height="20" as="geometry">
            <mxRectangle y="20" width="40" height="190" as="alternateBounds" />
          </mxGeometry>
        </mxCell>
        <mxCell id="8zD1isjqCTYLz-I86Rim-19" value="&lt;div&gt;Contraseña&lt;/div&gt;" style="swimlane;startSize=20;html=1;" vertex="1" parent="8zD1isjqCTYLz-I86Rim-6">
          <mxGeometry y="40" width="120" height="20" as="geometry">
            <mxRectangle y="20" width="40" height="190" as="alternateBounds" />
          </mxGeometry>
        </mxCell>
        <mxCell id="8zD1isjqCTYLz-I86Rim-20" value="&lt;div&gt;Email&lt;/div&gt;" style="swimlane;startSize=20;html=1;" vertex="1" parent="8zD1isjqCTYLz-I86Rim-6">
          <mxGeometry y="60" width="120" height="20" as="geometry">
            <mxRectangle y="20" width="40" height="190" as="alternateBounds" />
          </mxGeometry>
        </mxCell>
        <mxCell id="8zD1isjqCTYLz-I86Rim-21" value="&lt;div&gt;Dni&lt;/div&gt;" style="swimlane;startSize=20;html=1;" vertex="1" parent="8zD1isjqCTYLz-I86Rim-6">
          <mxGeometry y="80" width="120" height="20" as="geometry">
            <mxRectangle y="20" width="40" height="190" as="alternateBounds" />
          </mxGeometry>
        </mxCell>
        <mxCell id="8zD1isjqCTYLz-I86Rim-22" value="&lt;div&gt;cumpleaños&lt;/div&gt;" style="swimlane;startSize=20;html=1;" vertex="1" parent="8zD1isjqCTYLz-I86Rim-6">
          <mxGeometry y="100" width="120" height="20" as="geometry">
            <mxRectangle y="20" width="40" height="190" as="alternateBounds" />
          </mxGeometry>
        </mxCell>
        <mxCell id="8zD1isjqCTYLz-I86Rim-23" value="&lt;div&gt;pais&lt;span style=&quot;color: rgba(0, 0, 0, 0); font-family: monospace; font-size: 0px; font-weight: 400; text-align: start; background-color: initial;&quot;&gt;%3CmxGraphModel%3E%3Croot%3E%3CmxCell%20id%3D%220%22%2F%3E%3CmxCell%20id%3D%221%22%20parent%3D%220%22%2F%3E%3CmxCell%20id%3D%222%22%20value%3D%22%26lt%3Bdiv%26gt%3Bid(pk)%26lt%3B%2Fdiv%26gt%3B%22%20style%3D%22swimlane%3BstartSize%3D20%3Bhtml%3D1%3B%22%20vertex%3D%221%22%20parent%3D%221%22%3E%3CmxGeometry%20x%3D%22140%22%20y%3D%22140%22%20width%3D%22120%22%20height%3D%2220%22%20as%3D%22geometry%22%3E%3CmxRectangle%20y%3D%2220%22%20width%3D%2240%22%20height%3D%22190%22%20as%3D%22alternateBounds%22%2F%3E%3C%2FmxGeometry%3E%3C%2FmxCell%3E%3C%2Froot%3E%3C%2FmxGraphModel%3E&lt;/span&gt;&lt;/div&gt;" style="swimlane;startSize=20;html=1;" vertex="1" parent="8zD1isjqCTYLz-I86Rim-6">
          <mxGeometry y="120" width="120" height="20" as="geometry">
            <mxRectangle y="20" width="40" height="190" as="alternateBounds" />
          </mxGeometry>
        </mxCell>
        <mxCell id="8zD1isjqCTYLz-I86Rim-24" value="&lt;div&gt;Provincia&lt;/div&gt;" style="swimlane;startSize=20;html=1;" vertex="1" parent="8zD1isjqCTYLz-I86Rim-6">
          <mxGeometry y="140" width="120" height="20" as="geometry">
            <mxRectangle y="20" width="40" height="190" as="alternateBounds" />
          </mxGeometry>
        </mxCell>
        <mxCell id="8zD1isjqCTYLz-I86Rim-25" value="&lt;div&gt;admin&lt;/div&gt;" style="swimlane;startSize=20;html=1;" vertex="1" parent="8zD1isjqCTYLz-I86Rim-6">
          <mxGeometry y="160" width="120" height="20" as="geometry">
            <mxRectangle y="20" width="40" height="190" as="alternateBounds" />
          </mxGeometry>
        </mxCell>
        <mxCell id="8zD1isjqCTYLz-I86Rim-26" style="edgeStyle=orthogonalEdgeStyle;rounded=0;orthogonalLoop=1;jettySize=auto;html=1;" edge="1" parent="8zD1isjqCTYLz-I86Rim-5">
          <mxGeometry relative="1" as="geometry">
            <mxPoint x="119.9655172413793" y="199.9999999999999" as="targetPoint" />
            <mxPoint x="120" y="200" as="sourcePoint" />
          </mxGeometry>
        </mxCell>
        <mxCell id="8zD1isjqCTYLz-I86Rim-7" value="uuid(string)" style="swimlane;startSize=20;html=1;" vertex="1" parent="8zD1isjqCTYLz-I86Rim-5">
          <mxGeometry x="120" y="20" width="120" height="180" as="geometry">
            <mxRectangle x="40" y="20" width="40" height="190" as="alternateBounds" />
          </mxGeometry>
        </mxCell>
        <mxCell id="8zD1isjqCTYLz-I86Rim-28" value="&lt;div&gt;string&lt;/div&gt;" style="swimlane;startSize=20;html=1;" vertex="1" parent="8zD1isjqCTYLz-I86Rim-7">
          <mxGeometry y="20" width="120" height="20" as="geometry">
            <mxRectangle y="20" width="40" height="190" as="alternateBounds" />
          </mxGeometry>
        </mxCell>
        <mxCell id="8zD1isjqCTYLz-I86Rim-29" value="&lt;div&gt;string&lt;/div&gt;" style="swimlane;startSize=20;html=1;" vertex="1" parent="8zD1isjqCTYLz-I86Rim-7">
          <mxGeometry y="40" width="120" height="20" as="geometry">
            <mxRectangle y="20" width="40" height="190" as="alternateBounds" />
          </mxGeometry>
        </mxCell>
        <mxCell id="8zD1isjqCTYLz-I86Rim-30" value="&lt;div&gt;string&lt;/div&gt;" style="swimlane;startSize=20;html=1;" vertex="1" parent="8zD1isjqCTYLz-I86Rim-7">
          <mxGeometry y="60" width="120" height="20" as="geometry">
            <mxRectangle y="20" width="40" height="190" as="alternateBounds" />
          </mxGeometry>
        </mxCell>
        <mxCell id="8zD1isjqCTYLz-I86Rim-31" value="&lt;div&gt;Number&lt;span style=&quot;color: rgba(0, 0, 0, 0); font-family: monospace; font-size: 0px; font-weight: 400; text-align: start; background-color: initial;&quot;&gt;%3CmxGraphModel%3E%3Croot%3E%3CmxCell%20id%3D%220%22%2F%3E%3CmxCell%20id%3D%221%22%20parent%3D%220%22%2F%3E%3CmxCell%20id%3D%222%22%20value%3D%22%26lt%3Bdiv%26gt%3Bstring%26lt%3B%2Fdiv%26gt%3B%22%20style%3D%22swimlane%3BstartSize%3D20%3Bhtml%3D1%3B%22%20vertex%3D%221%22%20parent%3D%221%22%3E%3CmxGeometry%20x%3D%22260%22%20y%3D%22120%22%20width%3D%22120%22%20height%3D%2220%22%20as%3D%22geometry%22%3E%3CmxRectangle%20y%3D%2220%22%20width%3D%2240%22%20height%3D%22190%22%20as%3D%22alternateBounds%22%2F%3E%3C%2FmxGeometry%3E%3C%2FmxCell%3E%3C%2Froot%3E%3C%2FmxGraphModel%3E&lt;/span&gt;&lt;/div&gt;" style="swimlane;startSize=20;html=1;" vertex="1" parent="8zD1isjqCTYLz-I86Rim-7">
          <mxGeometry y="80" width="120" height="20" as="geometry">
            <mxRectangle y="20" width="40" height="190" as="alternateBounds" />
          </mxGeometry>
        </mxCell>
        <mxCell id="8zD1isjqCTYLz-I86Rim-32" value="&lt;div&gt;Date&lt;/div&gt;" style="swimlane;startSize=20;html=1;" vertex="1" parent="8zD1isjqCTYLz-I86Rim-7">
          <mxGeometry y="100" width="120" height="20" as="geometry">
            <mxRectangle y="20" width="40" height="190" as="alternateBounds" />
          </mxGeometry>
        </mxCell>
        <mxCell id="8zD1isjqCTYLz-I86Rim-33" value="&lt;div&gt;string&lt;/div&gt;" style="swimlane;startSize=20;html=1;" vertex="1" parent="8zD1isjqCTYLz-I86Rim-7">
          <mxGeometry y="120" width="120" height="20" as="geometry">
            <mxRectangle y="20" width="40" height="190" as="alternateBounds" />
          </mxGeometry>
        </mxCell>
        <mxCell id="8zD1isjqCTYLz-I86Rim-35" value="&lt;div&gt;string&lt;/div&gt;" style="swimlane;startSize=20;html=1;" vertex="1" parent="8zD1isjqCTYLz-I86Rim-7">
          <mxGeometry y="140" width="120" height="20" as="geometry">
            <mxRectangle y="20" width="40" height="190" as="alternateBounds" />
          </mxGeometry>
        </mxCell>
        <mxCell id="8zD1isjqCTYLz-I86Rim-36" value="&lt;div&gt;boolean&lt;/div&gt;" style="swimlane;startSize=20;html=1;" vertex="1" parent="8zD1isjqCTYLz-I86Rim-7">
          <mxGeometry y="160" width="120" height="20" as="geometry">
            <mxRectangle y="20" width="40" height="190" as="alternateBounds" />
          </mxGeometry>
        </mxCell>
        <mxCell id="8zD1isjqCTYLz-I86Rim-37" value="Orders" style="swimlane;childLayout=stackLayout;resizeParent=1;resizeParentMax=0;startSize=20;html=1;" vertex="1" parent="WIyWlLk6GJQsqaUBKTNV-1">
          <mxGeometry x="450" y="110" width="240" height="80" as="geometry" />
        </mxCell>
        <mxCell id="8zD1isjqCTYLz-I86Rim-38" value="&lt;div&gt;id(pk)&lt;/div&gt;" style="swimlane;startSize=20;html=1;" vertex="1" parent="8zD1isjqCTYLz-I86Rim-37">
          <mxGeometry y="20" width="120" height="60" as="geometry">
            <mxRectangle y="20" width="40" height="190" as="alternateBounds" />
          </mxGeometry>
        </mxCell>
        <mxCell id="8zD1isjqCTYLz-I86Rim-39" value="&lt;div&gt;datos&lt;/div&gt;" style="swimlane;startSize=20;html=1;" vertex="1" parent="8zD1isjqCTYLz-I86Rim-38">
          <mxGeometry y="20" width="120" height="20" as="geometry">
            <mxRectangle y="20" width="40" height="190" as="alternateBounds" />
          </mxGeometry>
        </mxCell>
        <mxCell id="8zD1isjqCTYLz-I86Rim-40" value="&lt;div&gt;user_id&lt;/div&gt;" style="swimlane;startSize=20;html=1;" vertex="1" parent="8zD1isjqCTYLz-I86Rim-38">
          <mxGeometry y="40" width="120" height="20" as="geometry">
            <mxRectangle y="20" width="40" height="190" as="alternateBounds" />
          </mxGeometry>
        </mxCell>
        <mxCell id="8zD1isjqCTYLz-I86Rim-47" style="edgeStyle=orthogonalEdgeStyle;rounded=0;orthogonalLoop=1;jettySize=auto;html=1;" edge="1" parent="8zD1isjqCTYLz-I86Rim-37">
          <mxGeometry relative="1" as="geometry">
            <mxPoint x="89.9655172413793" y="199.9999999999999" as="targetPoint" />
            <mxPoint x="90" y="200" as="sourcePoint" />
          </mxGeometry>
        </mxCell>
        <mxCell id="8zD1isjqCTYLz-I86Rim-48" value="uuid(string)" style="swimlane;startSize=20;html=1;" vertex="1" parent="8zD1isjqCTYLz-I86Rim-37">
          <mxGeometry x="120" y="20" width="120" height="60" as="geometry">
            <mxRectangle x="40" y="20" width="40" height="190" as="alternateBounds" />
          </mxGeometry>
        </mxCell>
        <mxCell id="8zD1isjqCTYLz-I86Rim-49" value="&lt;div&gt;Date&lt;/div&gt;" style="swimlane;startSize=20;html=1;" vertex="1" parent="8zD1isjqCTYLz-I86Rim-48">
          <mxGeometry y="20" width="120" height="20" as="geometry">
            <mxRectangle y="20" width="40" height="190" as="alternateBounds" />
          </mxGeometry>
        </mxCell>
        <mxCell id="8zD1isjqCTYLz-I86Rim-50" value="&lt;div&gt;uuid(string)&lt;/div&gt;" style="swimlane;startSize=20;html=1;" vertex="1" parent="8zD1isjqCTYLz-I86Rim-48">
          <mxGeometry y="40" width="120" height="20" as="geometry">
            <mxRectangle y="20" width="40" height="190" as="alternateBounds" />
          </mxGeometry>
        </mxCell>
        <mxCell id="8zD1isjqCTYLz-I86Rim-57" style="edgeStyle=orthogonalEdgeStyle;rounded=0;orthogonalLoop=1;jettySize=auto;html=1;exitX=1;exitY=1;exitDx=0;exitDy=0;entryX=1;entryY=1;entryDx=0;entryDy=0;" edge="1" parent="8zD1isjqCTYLz-I86Rim-48" source="8zD1isjqCTYLz-I86Rim-48" target="8zD1isjqCTYLz-I86Rim-50">
          <mxGeometry relative="1" as="geometry" />
        </mxCell>
        <mxCell id="8zD1isjqCTYLz-I86Rim-58" value="OrderDetails" style="swimlane;childLayout=stackLayout;resizeParent=1;resizeParentMax=0;startSize=20;html=1;" vertex="1" parent="WIyWlLk6GJQsqaUBKTNV-1">
          <mxGeometry x="430" y="280" width="240" height="100" as="geometry" />
        </mxCell>
        <mxCell id="8zD1isjqCTYLz-I86Rim-59" value="&lt;div&gt;id(pk)&lt;/div&gt;" style="swimlane;startSize=20;html=1;" vertex="1" parent="8zD1isjqCTYLz-I86Rim-58">
          <mxGeometry y="20" width="120" height="80" as="geometry">
            <mxRectangle y="20" width="40" height="190" as="alternateBounds" />
          </mxGeometry>
        </mxCell>
        <mxCell id="8zD1isjqCTYLz-I86Rim-60" value="&lt;div&gt;precio&lt;/div&gt;" style="swimlane;startSize=20;html=1;" vertex="1" parent="8zD1isjqCTYLz-I86Rim-59">
          <mxGeometry y="20" width="120" height="20" as="geometry">
            <mxRectangle y="20" width="40" height="190" as="alternateBounds" />
          </mxGeometry>
        </mxCell>
        <mxCell id="8zD1isjqCTYLz-I86Rim-61" value="&lt;div&gt;tipo de pago&lt;/div&gt;" style="swimlane;startSize=20;html=1;" vertex="1" parent="8zD1isjqCTYLz-I86Rim-59">
          <mxGeometry y="40" width="120" height="20" as="geometry">
            <mxRectangle y="20" width="40" height="190" as="alternateBounds" />
          </mxGeometry>
        </mxCell>
        <mxCell id="8zD1isjqCTYLz-I86Rim-62" value="&lt;div&gt;orden_id&lt;/div&gt;" style="swimlane;startSize=20;html=1;" vertex="1" parent="8zD1isjqCTYLz-I86Rim-59">
          <mxGeometry y="60" width="120" height="20" as="geometry">
            <mxRectangle y="20" width="40" height="190" as="alternateBounds" />
          </mxGeometry>
        </mxCell>
        <mxCell id="8zD1isjqCTYLz-I86Rim-68" style="edgeStyle=orthogonalEdgeStyle;rounded=0;orthogonalLoop=1;jettySize=auto;html=1;" edge="1" parent="8zD1isjqCTYLz-I86Rim-58">
          <mxGeometry relative="1" as="geometry">
            <mxPoint x="109.9655172413793" y="269.9999999999999" as="targetPoint" />
            <mxPoint x="110" y="270" as="sourcePoint" />
          </mxGeometry>
        </mxCell>
        <mxCell id="8zD1isjqCTYLz-I86Rim-69" value="uuid(string)" style="swimlane;startSize=20;html=1;" vertex="1" parent="8zD1isjqCTYLz-I86Rim-58">
          <mxGeometry x="120" y="20" width="120" height="80" as="geometry">
            <mxRectangle x="40" y="20" width="40" height="190" as="alternateBounds" />
          </mxGeometry>
        </mxCell>
        <mxCell id="8zD1isjqCTYLz-I86Rim-70" value="&lt;div&gt;string&lt;/div&gt;" style="swimlane;startSize=20;html=1;" vertex="1" parent="8zD1isjqCTYLz-I86Rim-69">
          <mxGeometry y="20" width="120" height="20" as="geometry">
            <mxRectangle y="20" width="40" height="190" as="alternateBounds" />
          </mxGeometry>
        </mxCell>
        <mxCell id="8zD1isjqCTYLz-I86Rim-71" value="&lt;div&gt;string&lt;/div&gt;" style="swimlane;startSize=20;html=1;" vertex="1" parent="8zD1isjqCTYLz-I86Rim-69">
          <mxGeometry y="40" width="120" height="20" as="geometry">
            <mxRectangle y="20" width="40" height="190" as="alternateBounds" />
          </mxGeometry>
        </mxCell>
        <mxCell id="8zD1isjqCTYLz-I86Rim-72" value="&lt;div&gt;uuid(string)&lt;/div&gt;" style="swimlane;startSize=20;html=1;" vertex="1" parent="8zD1isjqCTYLz-I86Rim-69">
          <mxGeometry y="60" width="120" height="20" as="geometry">
            <mxRectangle y="20" width="40" height="190" as="alternateBounds" />
          </mxGeometry>
        </mxCell>
        <mxCell id="8zD1isjqCTYLz-I86Rim-78" style="edgeStyle=orthogonalEdgeStyle;rounded=0;orthogonalLoop=1;jettySize=auto;html=1;" edge="1" parent="WIyWlLk6GJQsqaUBKTNV-1">
          <mxGeometry relative="1" as="geometry">
            <mxPoint x="789.9655172413793" y="419.9999999999999" as="targetPoint" />
            <mxPoint x="790" y="420" as="sourcePoint" />
          </mxGeometry>
        </mxCell>
        <mxCell id="8zD1isjqCTYLz-I86Rim-121" style="edgeStyle=orthogonalEdgeStyle;rounded=0;orthogonalLoop=1;jettySize=auto;html=1;exitX=0;exitY=0.5;exitDx=0;exitDy=0;endArrow=oval;endFill=1;startArrow=oval;startFill=1;" edge="1" parent="WIyWlLk6GJQsqaUBKTNV-1" source="8zD1isjqCTYLz-I86Rim-79">
          <mxGeometry relative="1" as="geometry">
            <mxPoint x="550" y="420.1111111111111" as="targetPoint" />
          </mxGeometry>
        </mxCell>
        <mxCell id="8zD1isjqCTYLz-I86Rim-79" value="OrderDetails_Productos" style="swimlane;childLayout=stackLayout;resizeParent=1;resizeParentMax=0;startSize=20;html=1;" vertex="1" parent="WIyWlLk6GJQsqaUBKTNV-1">
          <mxGeometry x="690" y="390" width="240" height="60" as="geometry" />
        </mxCell>
        <mxCell id="8zD1isjqCTYLz-I86Rim-80" value="&lt;div&gt;id(pk)&lt;/div&gt;" style="swimlane;startSize=20;html=1;" vertex="1" parent="8zD1isjqCTYLz-I86Rim-79">
          <mxGeometry y="20" width="120" height="40" as="geometry">
            <mxRectangle y="20" width="40" height="190" as="alternateBounds" />
          </mxGeometry>
        </mxCell>
        <mxCell id="8zD1isjqCTYLz-I86Rim-81" value="&lt;div&gt;precio&lt;/div&gt;" style="swimlane;startSize=20;html=1;" vertex="1" parent="8zD1isjqCTYLz-I86Rim-80">
          <mxGeometry y="20" width="120" height="20" as="geometry">
            <mxRectangle y="20" width="40" height="190" as="alternateBounds" />
          </mxGeometry>
        </mxCell>
        <mxCell id="8zD1isjqCTYLz-I86Rim-84" style="edgeStyle=orthogonalEdgeStyle;rounded=0;orthogonalLoop=1;jettySize=auto;html=1;" edge="1" parent="8zD1isjqCTYLz-I86Rim-79">
          <mxGeometry relative="1" as="geometry">
            <mxPoint x="119.9655172413793" y="199.9999999999999" as="targetPoint" />
            <mxPoint x="120" y="200" as="sourcePoint" />
          </mxGeometry>
        </mxCell>
        <mxCell id="8zD1isjqCTYLz-I86Rim-85" value="uuid(string)" style="swimlane;startSize=20;html=1;" vertex="1" parent="8zD1isjqCTYLz-I86Rim-79">
          <mxGeometry x="120" y="20" width="120" height="40" as="geometry">
            <mxRectangle x="40" y="20" width="40" height="190" as="alternateBounds" />
          </mxGeometry>
        </mxCell>
        <mxCell id="8zD1isjqCTYLz-I86Rim-86" value="&lt;div&gt;uuid(string)&lt;/div&gt;" style="swimlane;startSize=20;html=1;" vertex="1" parent="8zD1isjqCTYLz-I86Rim-85">
          <mxGeometry y="20" width="120" height="20" as="geometry">
            <mxRectangle y="20" width="40" height="190" as="alternateBounds" />
          </mxGeometry>
        </mxCell>
        <mxCell id="8zD1isjqCTYLz-I86Rim-99" style="edgeStyle=orthogonalEdgeStyle;rounded=0;orthogonalLoop=1;jettySize=auto;html=1;" edge="1" parent="WIyWlLk6GJQsqaUBKTNV-1">
          <mxGeometry relative="1" as="geometry">
            <mxPoint x="529.9655172413793" y="509.9999999999999" as="targetPoint" />
            <mxPoint x="530" y="510" as="sourcePoint" />
          </mxGeometry>
        </mxCell>
        <mxCell id="8zD1isjqCTYLz-I86Rim-100" value="Productos" style="swimlane;childLayout=stackLayout;resizeParent=1;resizeParentMax=0;startSize=20;html=1;" vertex="1" parent="WIyWlLk6GJQsqaUBKTNV-1">
          <mxGeometry x="430" y="480" width="240" height="160" as="geometry" />
        </mxCell>
        <mxCell id="8zD1isjqCTYLz-I86Rim-101" value="&lt;div&gt;id(pk)&lt;/div&gt;" style="swimlane;startSize=20;html=1;" vertex="1" parent="8zD1isjqCTYLz-I86Rim-100">
          <mxGeometry y="20" width="120" height="140" as="geometry">
            <mxRectangle y="20" width="40" height="190" as="alternateBounds" />
          </mxGeometry>
        </mxCell>
        <mxCell id="8zD1isjqCTYLz-I86Rim-102" value="&lt;div&gt;nombre&lt;/div&gt;" style="swimlane;startSize=20;html=1;" vertex="1" parent="8zD1isjqCTYLz-I86Rim-101">
          <mxGeometry y="20" width="120" height="20" as="geometry">
            <mxRectangle y="20" width="40" height="190" as="alternateBounds" />
          </mxGeometry>
        </mxCell>
        <mxCell id="8zD1isjqCTYLz-I86Rim-103" value="&lt;div&gt;descripcion&lt;/div&gt;" style="swimlane;startSize=20;html=1;" vertex="1" parent="8zD1isjqCTYLz-I86Rim-101">
          <mxGeometry y="40" width="120" height="20" as="geometry">
            <mxRectangle y="20" width="40" height="190" as="alternateBounds" />
          </mxGeometry>
        </mxCell>
        <mxCell id="8zD1isjqCTYLz-I86Rim-104" value="&lt;div&gt;precio&lt;/div&gt;" style="swimlane;startSize=20;html=1;" vertex="1" parent="8zD1isjqCTYLz-I86Rim-101">
          <mxGeometry y="60" width="120" height="20" as="geometry">
            <mxRectangle y="20" width="40" height="190" as="alternateBounds" />
          </mxGeometry>
        </mxCell>
        <mxCell id="8zD1isjqCTYLz-I86Rim-111" value="&lt;div&gt;stock&lt;/div&gt;" style="swimlane;startSize=20;html=1;" vertex="1" parent="8zD1isjqCTYLz-I86Rim-101">
          <mxGeometry y="80" width="120" height="20" as="geometry">
            <mxRectangle y="20" width="40" height="190" as="alternateBounds" />
          </mxGeometry>
        </mxCell>
        <mxCell id="8zD1isjqCTYLz-I86Rim-112" value="&lt;div&gt;imagen&lt;/div&gt;" style="swimlane;startSize=20;html=1;" vertex="1" parent="8zD1isjqCTYLz-I86Rim-101">
          <mxGeometry y="100" width="120" height="20" as="geometry">
            <mxRectangle y="20" width="40" height="190" as="alternateBounds" />
          </mxGeometry>
        </mxCell>
        <mxCell id="8zD1isjqCTYLz-I86Rim-113" value="&lt;div&gt;category_id&lt;/div&gt;" style="swimlane;startSize=20;html=1;" vertex="1" parent="8zD1isjqCTYLz-I86Rim-101">
          <mxGeometry y="120" width="120" height="20" as="geometry">
            <mxRectangle y="20" width="40" height="190" as="alternateBounds" />
          </mxGeometry>
        </mxCell>
        <mxCell id="8zD1isjqCTYLz-I86Rim-105" style="edgeStyle=orthogonalEdgeStyle;rounded=0;orthogonalLoop=1;jettySize=auto;html=1;" edge="1" parent="8zD1isjqCTYLz-I86Rim-100">
          <mxGeometry relative="1" as="geometry">
            <mxPoint x="119.9655172413793" y="199.9999999999999" as="targetPoint" />
            <mxPoint x="120" y="200" as="sourcePoint" />
          </mxGeometry>
        </mxCell>
        <mxCell id="8zD1isjqCTYLz-I86Rim-106" value="uuid(string)" style="swimlane;startSize=20;html=1;" vertex="1" parent="8zD1isjqCTYLz-I86Rim-100">
          <mxGeometry x="120" y="20" width="120" height="140" as="geometry">
            <mxRectangle x="40" y="20" width="40" height="190" as="alternateBounds" />
          </mxGeometry>
        </mxCell>
        <mxCell id="8zD1isjqCTYLz-I86Rim-107" value="&lt;div&gt;string&lt;/div&gt;" style="swimlane;startSize=20;html=1;" vertex="1" parent="8zD1isjqCTYLz-I86Rim-106">
          <mxGeometry y="20" width="120" height="20" as="geometry">
            <mxRectangle y="20" width="40" height="190" as="alternateBounds" />
          </mxGeometry>
        </mxCell>
        <mxCell id="8zD1isjqCTYLz-I86Rim-108" value="&lt;div&gt;string&lt;/div&gt;" style="swimlane;startSize=20;html=1;" vertex="1" parent="8zD1isjqCTYLz-I86Rim-106">
          <mxGeometry y="40" width="120" height="20" as="geometry">
            <mxRectangle y="20" width="40" height="190" as="alternateBounds" />
          </mxGeometry>
        </mxCell>
        <mxCell id="8zD1isjqCTYLz-I86Rim-109" value="&lt;div&gt;string&lt;/div&gt;" style="swimlane;startSize=20;html=1;" vertex="1" parent="8zD1isjqCTYLz-I86Rim-106">
          <mxGeometry y="60" width="120" height="20" as="geometry">
            <mxRectangle y="20" width="40" height="190" as="alternateBounds" />
          </mxGeometry>
        </mxCell>
        <mxCell id="8zD1isjqCTYLz-I86Rim-114" value="&lt;div&gt;string&lt;/div&gt;" style="swimlane;startSize=20;html=1;" vertex="1" parent="8zD1isjqCTYLz-I86Rim-106">
          <mxGeometry y="80" width="120" height="20" as="geometry">
            <mxRectangle y="20" width="40" height="190" as="alternateBounds" />
          </mxGeometry>
        </mxCell>
        <mxCell id="8zD1isjqCTYLz-I86Rim-115" value="&lt;div&gt;string (opcional)&lt;/div&gt;" style="swimlane;startSize=20;html=1;" vertex="1" parent="8zD1isjqCTYLz-I86Rim-106">
          <mxGeometry y="100" width="120" height="20" as="geometry">
            <mxRectangle y="20" width="40" height="190" as="alternateBounds" />
          </mxGeometry>
        </mxCell>
        <mxCell id="8zD1isjqCTYLz-I86Rim-116" value="&lt;div&gt;string&lt;/div&gt;" style="swimlane;startSize=20;html=1;" vertex="1" parent="8zD1isjqCTYLz-I86Rim-106">
          <mxGeometry y="120" width="120" height="20" as="geometry">
            <mxRectangle y="20" width="40" height="190" as="alternateBounds" />
          </mxGeometry>
        </mxCell>
        <mxCell id="8zD1isjqCTYLz-I86Rim-117" style="edgeStyle=orthogonalEdgeStyle;rounded=0;orthogonalLoop=1;jettySize=auto;html=1;exitX=1;exitY=0.25;exitDx=0;exitDy=0;entryX=0;entryY=0.25;entryDx=0;entryDy=0;endArrow=ERmany;endFill=0;startArrow=ERone;startFill=0;" edge="1" parent="WIyWlLk6GJQsqaUBKTNV-1" source="8zD1isjqCTYLz-I86Rim-7" target="8zD1isjqCTYLz-I86Rim-38">
          <mxGeometry relative="1" as="geometry" />
        </mxCell>
        <mxCell id="8zD1isjqCTYLz-I86Rim-119" style="edgeStyle=orthogonalEdgeStyle;rounded=0;orthogonalLoop=1;jettySize=auto;html=1;exitX=0;exitY=1;exitDx=0;exitDy=0;entryX=0.585;entryY=-0.016;entryDx=0;entryDy=0;entryPerimeter=0;endArrow=ERone;endFill=0;startArrow=ERone;startFill=0;" edge="1" parent="WIyWlLk6GJQsqaUBKTNV-1" source="8zD1isjqCTYLz-I86Rim-48" target="8zD1isjqCTYLz-I86Rim-58">
          <mxGeometry relative="1" as="geometry" />
        </mxCell>
        <mxCell id="8zD1isjqCTYLz-I86Rim-120" style="edgeStyle=orthogonalEdgeStyle;rounded=0;orthogonalLoop=1;jettySize=auto;html=1;exitX=0;exitY=1;exitDx=0;exitDy=0;entryX=0.5;entryY=0;entryDx=0;entryDy=0;startArrow=ERoneToMany;startFill=0;endArrow=ERoneToMany;endFill=0;" edge="1" parent="WIyWlLk6GJQsqaUBKTNV-1" source="8zD1isjqCTYLz-I86Rim-69" target="8zD1isjqCTYLz-I86Rim-100">
          <mxGeometry relative="1" as="geometry" />
        </mxCell>
        <mxCell id="8zD1isjqCTYLz-I86Rim-122" style="edgeStyle=orthogonalEdgeStyle;rounded=0;orthogonalLoop=1;jettySize=auto;html=1;" edge="1" parent="WIyWlLk6GJQsqaUBKTNV-1">
          <mxGeometry relative="1" as="geometry">
            <mxPoint x="219.9655172413793" y="559.9999999999999" as="targetPoint" />
            <mxPoint x="220" y="560" as="sourcePoint" />
          </mxGeometry>
        </mxCell>
        <mxCell id="8zD1isjqCTYLz-I86Rim-123" value="Category" style="swimlane;childLayout=stackLayout;resizeParent=1;resizeParentMax=0;startSize=20;html=1;" vertex="1" parent="WIyWlLk6GJQsqaUBKTNV-1">
          <mxGeometry x="120" y="530" width="240" height="60" as="geometry" />
        </mxCell>
        <mxCell id="8zD1isjqCTYLz-I86Rim-124" value="&lt;div&gt;id(pk)&lt;/div&gt;" style="swimlane;startSize=20;html=1;" vertex="1" parent="8zD1isjqCTYLz-I86Rim-123">
          <mxGeometry y="20" width="120" height="40" as="geometry">
            <mxRectangle y="20" width="40" height="190" as="alternateBounds" />
          </mxGeometry>
        </mxCell>
        <mxCell id="8zD1isjqCTYLz-I86Rim-125" value="&lt;div&gt;name&lt;/div&gt;" style="swimlane;startSize=20;html=1;" vertex="1" parent="8zD1isjqCTYLz-I86Rim-124">
          <mxGeometry y="20" width="120" height="20" as="geometry">
            <mxRectangle y="20" width="40" height="190" as="alternateBounds" />
          </mxGeometry>
        </mxCell>
        <mxCell id="8zD1isjqCTYLz-I86Rim-126" style="edgeStyle=orthogonalEdgeStyle;rounded=0;orthogonalLoop=1;jettySize=auto;html=1;" edge="1" parent="8zD1isjqCTYLz-I86Rim-123">
          <mxGeometry relative="1" as="geometry">
            <mxPoint x="119.9655172413793" y="199.9999999999999" as="targetPoint" />
            <mxPoint x="120" y="200" as="sourcePoint" />
          </mxGeometry>
        </mxCell>
        <mxCell id="8zD1isjqCTYLz-I86Rim-127" value="uuid(string)" style="swimlane;startSize=20;html=1;" vertex="1" parent="8zD1isjqCTYLz-I86Rim-123">
          <mxGeometry x="120" y="20" width="120" height="40" as="geometry">
            <mxRectangle x="40" y="20" width="40" height="190" as="alternateBounds" />
          </mxGeometry>
        </mxCell>
        <mxCell id="8zD1isjqCTYLz-I86Rim-128" value="&lt;div&gt;string&lt;/div&gt;" style="swimlane;startSize=20;html=1;" vertex="1" parent="8zD1isjqCTYLz-I86Rim-127">
          <mxGeometry y="20" width="120" height="20" as="geometry">
            <mxRectangle y="20" width="40" height="190" as="alternateBounds" />
          </mxGeometry>
        </mxCell>
        <mxCell id="8zD1isjqCTYLz-I86Rim-129" style="edgeStyle=orthogonalEdgeStyle;rounded=0;orthogonalLoop=1;jettySize=auto;html=1;startArrow=ERmany;startFill=0;endArrow=ERmany;endFill=0;" edge="1" parent="WIyWlLk6GJQsqaUBKTNV-1">
          <mxGeometry relative="1" as="geometry">
            <mxPoint x="430" y="550" as="sourcePoint" />
            <mxPoint x="360" y="550" as="targetPoint" />
            <Array as="points">
              <mxPoint x="430" y="550" />
            </Array>
          </mxGeometry>
        </mxCell>
      </root>
    </mxGraphModel>
  </diagram>
</mxfile>
